<svg xmlns="http://www.w3.org/2000/svg" xmlns:xlink="http://www.w3.org/1999/xlink" width="650" height="297.7198" viewBox="0 0 650 297.7198"><defs><style>.cls-1{fill:#fff;}.cls-2{fill:url(#linear-gradient);}.cls-3{fill:url(#linear-gradient-2);}.cls-4{fill:#888694;}</style><linearGradient id="linear-gradient" x1="542.4536" y1="201.6612" x2="542.4536" y2="8.1378" gradientUnits="userSpaceOnUse"><stop offset="0.0012" stop-color="#3770d7"/><stop offset="0.1887" stop-color="#3376d9"/><stop offset="0.4429" stop-color="#2887df"/><stop offset="0.7341" stop-color="#15a4e8"/><stop offset="1" stop-color="#00c4f2"/></linearGradient><linearGradient id="linear-gradient-2" x1="624.7464" y1="201.6612" x2="624.7464" y2="8.1095" xlink:href="#linear-gradient"/></defs><g id="Layer_2" data-name="Layer 2"><g id="Designed_by_Freepik" data-name="Designed by Freepik"><path class="cls-1" d="M68.0029,198.5864a4.4684,4.4684,0,0,1-4.863-4.8629V99.5719c0-13.0265-7.1287-21.1194-18.6038-21.1194-11.478,0-18.6085,8.0929-18.6085,21.1194v94.1516a4.4687,4.4687,0,0,1-4.8639,4.8629h-16.2A4.4687,4.4687,0,0,1,0,193.7235V100.4089C0,73.0368,18.314,53.92,44.5361,53.92c26.2192,0,44.53,19.1166,44.53,46.4887v93.3146a4.466,4.466,0,0,1-4.8574,4.8629Z"/><path class="cls-1" d="M227.3389,201.3825c-3.046,0-4.8639-1.8383-4.8639-4.9187V81.8106h-14.97a4.3649,4.3649,0,0,1-4.5843-4.6363V62.4413a4.32,4.32,0,0,1,4.5843-4.6354h14.97V52.8017c0-16.0408,4.6549-29.4575,13.4622-38.797C244.5763,4.8426,256.7705,0,271.2024,0c2.8277,0,4.5843,1.8848,4.5843,4.92V19.935c0,3.0339-1.7566,4.9187-4.5843,4.9187-14.9122,0-22.7942,9.1751-22.7942,26.5333v6.4189h26.706a4.3643,4.3643,0,0,1,4.5843,4.6354v14.733a4.3649,4.3649,0,0,1-4.5843,4.6363h-26.706V196.4638a4.6307,4.6307,0,0,1-4.863,4.9187Z"/><path class="cls-1" d="M441.1581,201.6612c-27.55,0-46.681-18.2211-47.6044-45.3405-.0009-3.3479,1.726-5.1742,4.8621-5.1742h16.2007c2.8444,0,4.5694,1.595,4.8583,4.49,1.1408,14.4793,7.9415,21.2141,21.4037,21.2141,11.6526,0,18.6094-6.12,18.6094-16.3706,0-11.79-11.948-17.073-25.7818-23.19-18.0362-7.975-38.4793-17.0135-38.4793-43.3034,0-23.216,18.143-40.066,43.1408-40.066,14.3047,0,25.581,4.2592,33.516,12.66,6.9336,7.34,10.8407,17.48,11.2987,29.3219.0009,3.0831-1.713,4.901-4.5834,4.901H462.1131a4.7122,4.7122,0,0,1-4.8556-4.4663c-.876-11.3823-7.556-17.8839-18.3317-17.8839-10.7933,0-18.0455,6.4673-18.0455,16.092,0,10.9215,11.5894,15.9378,25.0089,21.7474,18.5267,8.02,39.5253,17.11,39.5253,44.4663C485.4145,184.4592,466.8023,201.6612,441.1581,201.6612Z"/><path class="cls-1" d="M336.2076,201.3825c-26.9726,0-45.0943-18.6846-45.0943-46.4951V100.13c.29-27.4771,18.5239-45.9313,45.3739-45.9313l.5778-.0028c26.1181,0,45.074,18.9661,45.074,45.0971,0,25.3972-18.6578,43.1352-45.3731,43.1352H317.0464V156.01c0,12.8547,7.4492,20.8407,19.4408,20.8407,10.2871,0,18.0623-8.679,18.9076-21.1054.3252-2.929,2.05-4.5193,4.8621-4.5193h16.4784A4.2957,4.2957,0,0,1,381.32,155.81C379.88,182.6635,361.33,201.3825,336.2076,201.3825Zm.5583-82.6429c11.9954,0,19.4464-7.2374,19.4464-18.8881,0-13.0274-7.5578-21.12-19.7251-21.12-12.1728,0-19.4408,7.895-19.4408,21.12V118.74Z"/><path class="cls-2" d="M509.2994,201.6612c-7.8087,0-12.47-4.6614-12.47-12.47V183.29c0-39.6953,20.5463-64.4227,38.6736-86.2388C549.7267,79.9323,562.01,65.1492,562.01,46.4664c0-10.5425-4.9159-21.8077-18.7144-21.8077-12.2564,0-19.3015,9.0524-19.8393,25.4891-.3381,3.0692-2.1626,4.8565-4.8862,4.8565H502.8377c-2.8388,0-4.602-1.8728-4.602-4.8872C499.69,19.1863,516.9566,0,543.2957,0c26.2007,0,44.5,18.876,44.5,45.9025,0,28.7711-16.8063,49.1436-33.059,68.8445-15.7418,19.0823-30.6215,37.1213-30.9931,61.9741h59.7289c2.8407,0,4.6056,1.8718,4.6056,4.8844v15.1723c0,3.0125-1.7649,4.8834-4.6056,4.8834Z"/><path class="cls-3" d="M627.9777,201.6612c-2.8407,0-4.6057-1.8709-4.6057-4.8834V28.0307H604.0938c-2.8379,0-4.6011-1.8709-4.6011-4.8834V7.6925a4.3562,4.3562,0,0,1,4.6011-4.6019h29.7817C644.1226,3.0906,650,8.8649,650,18.9327V196.7778a4.4889,4.4889,0,0,1-4.8871,4.8834Z"/><path class="cls-1" d="M145.5748,201.3825c-26.9718,0-45.0935-18.6846-45.0935-46.4951V100.13c.2889-27.4771,18.5221-45.9313,45.3731-45.9313l.5778-.0028c26.118,0,45.0739,18.9661,45.0739,45.0971,0,25.3972-18.6577,43.1352-45.3731,43.1352H126.4145V156.01c0,12.8547,7.4491,20.8407,19.44,20.8407,10.287,0,18.0622-8.679,18.9076-21.1054.3251-2.929,2.05-4.5193,4.862-4.5193h16.4794a4.34,4.34,0,0,1,4.5843,4.5843C189.2469,182.6635,170.6969,201.3825,145.5748,201.3825Zm.5582-82.6429c11.9954,0,19.4464-7.2374,19.4464-18.8881,0-13.0274-7.5578-21.12-19.725-21.12-12.1728,0-19.44,7.895-19.44,21.12V118.74Z"/><path class="cls-4" d="M0,294.2147a6.4926,6.4926,0,0,1,.4874-2.2188l20.5893-55.6873c.9758-2.6183,2.6178-3.86,5.2355-3.86,2.4409,0,4.0377,1.1978,5.0145,3.816L51.96,291.9959a6.4926,6.4926,0,0,1,.4874,2.2188c0,2.041-1.6862,3.5051-3.9935,3.5051-1.9967,0-3.15-.9315-3.905-3.0614l-5.68-15.8854H13.533L7.8975,294.6584c-.7537,2.13-1.9073,3.0614-3.904,3.0614C1.6862,297.72,0,296.2557,0,294.2147Zm36.6064-22.2308-10.25-29.1968H26.09L15.84,271.9839Z"/><path class="cls-4" d="M70.1961,292.9722V237.1959a3.7872,3.7872,0,0,1,3.9935-4.1266H91.717c18.9915,0,30.2172,11.8472,30.2172,31.9924,0,20.19-11.1815,32.0371-30.2172,32.0371H74.19A3.7872,3.7872,0,0,1,70.1961,292.9722ZM91.1844,289.91c14.51,0,22.5851-8.8743,22.5851-24.76,0-16.0185-8.0312-24.8928-22.5851-24.8928H78.183V289.91Z"/><path class="cls-4" d="M140.9267,293.86V237.418a4.7639,4.7639,0,0,1,5.1029-4.97c2.7062,0,4.3482,1.2867,5.5912,4.26l20.6768,49.7856h.3557l20.6326-49.7856c1.243-2.9288,2.9735-4.26,5.7239-4.26a4.6932,4.6932,0,0,1,5.0144,4.97V293.86a3.7294,3.7294,0,1,1-7.4543,0V247.7564h-.31l-18.9916,45.4374c-1.0209,2.3962-2.4851,3.4613-4.7923,3.4613s-3.8156-1.0651-4.7924-3.3724l-18.9915-45.5263h-.31V293.86a3.7295,3.7295,0,1,1-7.4544,0Z"/><path class="cls-4" d="M225.547,293.5932V236.5749a3.9956,3.9956,0,1,1,7.9869,0v57.0183a3.9956,3.9956,0,1,1-7.9869,0Z"/><path class="cls-4" d="M255.049,293.5932V237.1075a4.3555,4.3555,0,0,1,4.57-4.6592c2.1294,0,3.1946.621,4.6145,2.6619l33.6349,48.2331h.3989V236.5749c0-2.5294,1.5084-4.1266,3.9493-4.1266s3.9492,1.5972,3.9492,4.1266v56.7967c0,2.7067-1.6862,4.3482-4.526,4.3482-2.1746,0-3.1946-.5768-4.6145-2.6177l-33.6791-48.1h-.399v46.591c0,2.5293-1.5093,4.1266-3.9492,4.1266S255.049,296.1225,255.049,293.5932Z"/><path class="cls-4" d="M355.4143,293.5932V237.1959a3.7872,3.7872,0,0,1,3.9935-4.1266h18.8579c12.0256,0,20.5009,8.4306,20.5009,20.5446,0,12.1578-8.5647,20.633-20.5893,20.633h-14.776v19.3463a3.9956,3.9956,0,1,1-7.987,0Zm20.7662-26.4459c9.1406,0,14.3771-5.0139,14.3771-13.5334,0-8.4753-5.1923-13.445-14.3771-13.445H363.4013v26.9784Z"/><path class="cls-4" d="M408.3494,294.2147a6.49,6.49,0,0,1,.4874-2.2188l20.5893-55.6873c.9757-2.6183,2.6177-3.86,5.2355-3.86,2.4409,0,4.0377,1.1978,5.0144,3.816L460.31,291.9959a6.4926,6.4926,0,0,1,.4874,2.2188c0,2.041-1.6863,3.5051-3.9935,3.5051-1.9967,0-3.15-.9315-3.905-3.0614l-5.68-15.8854H421.8823l-5.6354,15.8854c-.7537,2.13-1.9073,3.0614-3.9041,3.0614C410.0356,297.72,408.3494,296.2557,408.3494,294.2147Zm36.6073-22.2308-10.2509-29.1968H434.44l-10.25,29.1968Z"/><path class="cls-4" d="M478.5464,293.5932V237.1075a4.3555,4.3555,0,0,1,4.57-4.6592c2.1294,0,3.1946.621,4.6145,2.6619l33.6349,48.2331h.3989V236.5749c0-2.5294,1.5084-4.1266,3.9493-4.1266s3.9492,1.5972,3.9492,4.1266v56.7967c0,2.7067-1.6862,4.3482-4.526,4.3482-2.1746,0-3.1946-.5768-4.6145-2.6177l-33.6791-48.1h-.399v46.591c0,2.5293-1.5093,4.1266-3.9492,4.1266S478.5464,296.1225,478.5464,293.5932Z"/><path class="cls-4" d="M551.1844,292.9722V237.1959a3.7872,3.7872,0,0,1,3.9935-4.1266h32.5245a3.6007,3.6007,0,1,1,0,7.1885H559.1713v20.5441h26.9343a3.5563,3.5563,0,1,1,0,7.1H559.1713V289.91h28.5311a3.6007,3.6007,0,1,1,0,7.1885H555.1779A3.7872,3.7872,0,0,1,551.1844,292.9722Z"/><path class="cls-4" d="M610.4643,292.9722V236.5749a3.9956,3.9956,0,1,1,7.987,0V289.91h27.7331a3.6007,3.6007,0,1,1,0,7.1885H614.4578A3.7872,3.7872,0,0,1,610.4643,292.9722Z"/></g></g></svg>