<svg xmlns="http://www.w3.org/2000/svg" xmlns:xlink="http://www.w3.org/1999/xlink" width="32" height="32" viewBox="0 0 32 32">
  <defs>
    <style>
      .cls-1 {
        fill: none;
      }

      .cls-2 {
        clip-path: url(#clip-path);
      }
    </style>
    <clipPath id="clip-path">
      <rect id="Rectangle_579" data-name="Rectangle 579" class="cls-1" width="32" height="32" transform="translate(-101.621)"/>
    </clipPath>
  </defs>
  <g id="ic_part_video" transform="translate(101.621)">
    <g id="Group_2458" data-name="Group 2458" class="cls-2">
      <path id="Path_3561" data-name="Path 3561" d="M-72.8,8.977a1.889,1.889,0,0,0-2.06.409l-3.6,3.6V10.793a2.831,2.831,0,0,0-2.831-2.83h-15.5a2.83,2.83,0,0,0-2.831,2.83V21.207a2.83,2.83,0,0,0,2.831,2.83h15.507a2.83,2.83,0,0,0,2.83-2.83v-2.2l3.6,3.6a1.889,1.889,0,0,0,2.671.019,1.887,1.887,0,0,0,.562-1.35V10.723A1.888,1.888,0,0,0-72.8,8.977Zm-13.52,7.756L-90.177,19.7a.924.924,0,0,1-1.3-.171.919.919,0,0,1-.191-.562V13.036a.924.924,0,0,1,.925-.924.928.928,0,0,1,.562.191l3.857,2.964a.924.924,0,0,1,.171,1.3.917.917,0,0,1-.171.17Z"/>
    </g>
  </g>
</svg>
