<svg xmlns="http://www.w3.org/2000/svg" xmlns:xlink="http://www.w3.org/1999/xlink" width="32" height="32" viewBox="0 0 32 32">
  <defs>
    <style>
      .cls-1 {
        fill: none;
      }

      .cls-2 {
        clip-path: url(#clip-path);
      }
    </style>
    <clipPath id="clip-path">
      <rect id="Rectangle_580" data-name="Rectangle 580" class="cls-1" width="32" height="32" transform="translate(-52)"/>
    </clipPath>
  </defs>
  <g id="ic_part_audio" transform="translate(52)">
    <g id="Group_2459" data-name="Group 2459" class="cls-2">
      <g id="Group_2123" data-name="Group 2123">
        <g id="Group_2122" data-name="Group 2122">
          <path id="Path_3562" data-name="Path 3562" d="M-43.886,17.129v9.59a1.034,1.034,0,0,0,1.034,1.034,1.034,1.034,0,0,0,1.033-1.034v-9.59A1.033,1.033,0,0,0-42.852,16.1,1.033,1.033,0,0,0-43.886,17.129Z"/>
          <path id="Path_3563" data-name="Path 3563" d="M-47.131,27.763h2.275V16.378a1.316,1.316,0,0,0,.016-.165,8.835,8.835,0,0,1,8.835-8.837,8.837,8.837,0,0,1,8.838,8.835v0a1.345,1.345,0,0,0,.023.22v11.33h2.275A2.921,2.921,0,0,0-22,24.8V18.867a2.958,2.958,0,0,0-2.071-2.849A11.933,11.933,0,0,0-36.154,4.238a11.932,11.932,0,0,0-11.78,11.78A2.955,2.955,0,0,0-50,18.858v5.928a2.922,2.922,0,0,0,2.865,2.977Z"/>
          <path id="Path_3564" data-name="Path 3564" d="M-30.175,17.129v9.59a1.033,1.033,0,0,0,1.033,1.034,1.034,1.034,0,0,0,1.034-1.034v-9.59A1.033,1.033,0,0,0-29.142,16.1,1.032,1.032,0,0,0-30.175,17.129Z"/>
        </g>
      </g>
    </g>
  </g>
</svg>
